REM DIRINDEX 1\2,1\3,1\4,1\5,1\6,1\7
REM DIRNAME folder01,folder02,folder03,folder04,folder05,folder06,folder07
TITLE ""
FILE "Disk1Track37.mp3" MP3
  TRACK 01 AUDIO
    TITLE "7:cjc104_0512"
    INDEX 01 00:00:00
  TRACK 02 AUDIO
    TITLE "0:"
    INDEX 01 00:01:17
  TRACK 03 AUDIO
    TITLE "7:cjc104_0513"
    INDEX 01 00:02:16
  TRACK 04 AUDIO
    TITLE "0:"
    INDEX 01 00:03:15
  TRACK 05 AUDIO
    TITLE "5:cjc104_0514"
    INDEX 01 00:03:35
  TRACK 06 AUDIO
    TITLE "0:"
    INDEX 01 00:07:11
  TRACK 07 AUDIO
    TITLE "7:cjc104_0515"
    INDEX 01 00:08:13
  TRACK 08 AUDIO
    TITLE "0:"
    INDEX 01 00:09:06
  TRACK 09 AUDIO
    TITLE "5:cjc104_0516"
    INDEX 01 00:09:08
  TRACK 10 AUDIO
    TITLE "0:"
    INDEX 01 00:14:41
  TRACK 11 AUDIO
    TITLE "7:cjc104_0517"
    INDEX 01 00:15:42
  TRACK 12 AUDIO
    TITLE "0:"
    INDEX 01 00:16:38
  TRACK 13 AUDIO
    TITLE "5:cjc104_0518"
    INDEX 01 00:16:44
  TRACK 14 AUDIO
    TITLE "0:"
    INDEX 01 00:22:38
  TRACK 15 AUDIO
    TITLE "7:cjc104_0519"
    INDEX 01 00:23:38
  TRACK 16 AUDIO
    TITLE "0:"
    INDEX 01 00:24:41
  TRACK 17 AUDIO
    TITLE "5:cjc104_0520"
    INDEX 01 00:24:55
  TRACK 18 AUDIO
    TITLE "0:"
    INDEX 01 00:28:49
  TRACK 19 AUDIO
    TITLE "7:cjc104_0521"
    INDEX 01 00:29:48
  TRACK 20 AUDIO
    TITLE "0:"
    INDEX 01 00:30:54
  TRACK 21 AUDIO
    TITLE "5:cjc104_0522"
    INDEX 01 00:30:61
  TRACK 22 AUDIO
    TITLE "0:"
    INDEX 01 00:34:04
  TRACK 23 AUDIO
    TITLE "7:cjc104_0523"
    INDEX 01 00:35:04
  TRACK 24 AUDIO
    TITLE "0:"
    INDEX 01 00:36:05
  TRACK 25 AUDIO
    TITLE "5:cjc104_0524"
    INDEX 01 00:36:07
  TRACK 26 AUDIO
    TITLE "0:"
    INDEX 01 00:41:73
  TRACK 27 AUDIO
    TITLE "7:cjc104_0525"
    INDEX 01 00:42:74
  TRACK 28 AUDIO
    TITLE "0:"
    INDEX 01 00:43:74
  TRACK 29 AUDIO
    TITLE "5:cjc104_0526"
    INDEX 01 00:44:14
  TRACK 30 AUDIO
    TITLE "0:"
    INDEX 01 00:48:71
  TRACK 31 AUDIO
    TITLE "7:cjc104_0527"
    INDEX 01 00:49:70
  TRACK 32 AUDIO
    TITLE "0:"
    INDEX 01 00:50:62
  TRACK 33 AUDIO
    TITLE "5:cjc104_0528"
    INDEX 01 00:50:64
  TRACK 34 AUDIO
    TITLE "0:"
    INDEX 01 00:58:24
  TRACK 35 AUDIO
    TITLE "7:cjc104_0529"
    INDEX 01 00:59:24
  TRACK 36 AUDIO
    TITLE "0:"
    INDEX 01 01:00:29
  TRACK 37 AUDIO
    TITLE "5:cjc104_0530"
    INDEX 01 01:00:37
  TRACK 38 AUDIO
    TITLE "0:"
    INDEX 01 01:04:37
  TRACK 39 AUDIO
    TITLE "7:cjc104_0531"
    INDEX 01 01:05:36
  TRACK 40 AUDIO
    TITLE "0:"
    INDEX 01 01:06:32
  TRACK 41 AUDIO
    TITLE "5:cjc104_0532"
    INDEX 01 01:06:42
  TRACK 42 AUDIO
    TITLE "0:"
    INDEX 01 01:12:01
  TRACK 43 AUDIO
    TITLE "7:cjc104_0533"
    INDEX 01 01:13:02
  TRACK 44 AUDIO
    TITLE "0:"
    INDEX 01 01:14:02
  TRACK 45 AUDIO
    TITLE "5:cjc104_0534"
    INDEX 01 01:14:25
  TRACK 46 AUDIO
    TITLE "0:"
    INDEX 01 01:19:23
  TRACK 47 AUDIO
    TITLE "7:cjc104_0535"
    INDEX 01 01:20:22
  TRACK 48 AUDIO
    TITLE "0:"
    INDEX 01 01:21:25
  TRACK 49 AUDIO
    TITLE "5:cjc104_0536"
    INDEX 01 01:21:33
  TRACK 50 AUDIO
    TITLE "0:"
    INDEX 01 01:27:44
  TRACK 51 AUDIO
    TITLE "7:cjc104_0537"
    INDEX 01 01:28:39
  TRACK 52 AUDIO
    TITLE "0:"
    INDEX 01 01:29:56
  TRACK 53 AUDIO
    TITLE "5:cjc104_0538"
    INDEX 01 01:30:03
  TRACK 54 AUDIO
    TITLE "0:"
    INDEX 01 01:36:37
  TRACK 55 AUDIO
    TITLE "7:cjc104_0539"
    INDEX 01 01:37:38
  TRACK 56 AUDIO
    TITLE "0:"
    INDEX 01 01:38:53
  TRACK 57 AUDIO
    TITLE "5:cjc104_0540"
    INDEX 01 01:38:69
  TRACK 58 AUDIO
    TITLE "0:"
    INDEX 01 01:44:64
  TRACK 59 AUDIO
    TITLE "7:cjc104_0541"
    INDEX 01 01:45:63
  TRACK 60 AUDIO
    TITLE "0:"
    INDEX 01 01:47:03
  TRACK 61 AUDIO
    TITLE "5:cjc104_0542"
    INDEX 01 01:47:13
  TRACK 62 AUDIO
    TITLE "0:"
    INDEX 01 01:52:20
